<?xml version="1.0" standalone="no"?>
<!DOCTYPE svg PUBLIC "-//W3C//DTD SVG 20010904//EN"
 "http://www.w3.org/TR/2001/REC-SVG-20010904/DTD/svg10.dtd">
<svg version="1.0" xmlns="http://www.w3.org/2000/svg"
 width="750.000000pt" height="750.000000pt" viewBox="0 0 750.000000 750.000000"
 preserveAspectRatio="xMidYMid meet">
<metadata>
Created by potrace 1.11, written by Peter Selinger 2001-2013
</metadata>
<g transform="translate(0.000000,750.000000) scale(0.100000,-0.100000)"
fill="#000000" stroke="none">
<path d="M0 3750 l0 -3750 3750 0 3750 0 0 3750 0 3750 -3750 0 -3750 0 0
-3750z m4436 3050 c846 -68 1458 -388 1712 -895 93 -186 132 -345 139 -565 9
-261 -31 -456 -136 -675 -156 -324 -427 -557 -790 -679 l-104 -35 44 -11 c347
-89 572 -211 784 -424 257 -259 403 -615 421 -1026 20 -444 -115 -829 -394
-1122 -326 -342 -777 -540 -1422 -625 -123 -16 -276 -18 -1757 -20 l-1623 -4
0 3046 0 3045 1499 0 c938 0 1546 -4 1627 -10z"/>
<path d="M2690 5020 l0 -660 708 0 c419 0 744 4 797 10 341 40 568 197 652
454 36 112 39 295 6 401 -66 211 -238 359 -493 427 -84 22 -94 22 -877 25
l-793 4 0 -661z"/>
<path d="M2690 2570 l0 -732 773 5 c882 5 912 7 1137 89 194 70 345 196 418
349 54 113 67 173 66 304 -1 371 -261 611 -749 691 -85 15 -215 18 -872 21
l-773 5 0 -732z"/>
</g>
</svg>
